<?xml version="1.0" encoding="UTF-8"?>
<svg xmlns="http://www.w3.org/2000/svg" xmlns:xlink="http://www.w3.org/1999/xlink" width="480pt" height="480pt" viewBox="0 0 480 480" version="1.1">
<g id="surface1">
<path style=" stroke:none;fill-rule:nonzero;fill:#FFFFFF;fill-opacity:1;" d="M 30 162 L 450 162 L 450 462 L 30 462 Z "/>
<path style=" stroke:none;fill-rule:nonzero;fill:#4788C7;fill-opacity:1;" d="M 444 168 L 444 456 L 36 456 L 36 168 L 444 168 M 456 156 L 24 156 L 24 468 L 456 468 Z "/>
<path style=" stroke:none;fill-rule:nonzero;fill:#DFF0FE;fill-opacity:1;" d="M 36 408 L 444 408 L 444 456 L 36 456 Z "/>
<path style=" stroke:none;fill-rule:nonzero;fill:#C2E8FF;fill-opacity:1;" d="M 90 270 L 222 270 L 222 462 L 90 462 Z "/>
<path style=" stroke:none;fill-rule:nonzero;fill:#4788C7;fill-opacity:1;" d="M 216 276 L 216 456 L 96 456 L 96 276 L 216 276 M 228 264 L 84 264 L 84 468 L 228 468 Z "/>
<path style=" stroke:none;fill-rule:nonzero;fill:#C2E8FF;fill-opacity:1;" d="M 282 270 L 390 270 L 390 366 L 282 366 Z "/>
<path style=" stroke:none;fill-rule:nonzero;fill:#4788C7;fill-opacity:1;" d="M 384 276 L 384 360 L 288 360 L 288 276 L 384 276 M 396 264 L 276 264 L 276 372 L 396 372 Z "/>
<path style=" stroke:none;fill-rule:nonzero;fill:#4788C7;fill-opacity:1;" d="M 204 360 C 204 366.628906 198.628906 372 192 372 C 185.371094 372 180 366.628906 180 360 C 180 353.371094 185.371094 348 192 348 C 198.628906 348 204 353.371094 204 360 Z "/>
<path style=" stroke:none;fill-rule:nonzero;fill:#4788C7;fill-opacity:1;" d="M 24 12 L 24 108 L 456 108 L 456 12 Z "/>
<path style=" stroke:none;fill-rule:nonzero;fill:#B6DCFE;fill-opacity:1;" d="M 0 189.9375 C 0 215.003906 18.324219 237.394531 43.285156 239.773438 C 71.914063 242.507813 96 220.066406 96 192 C 96 218.507813 117.492188 240 144 240 C 170.507813 240 192 218.507813 192 192 C 192 218.507813 213.492188 240 240 240 C 266.507813 240 288 218.507813 288 192 C 288 218.507813 309.492188 240 336 240 C 362.507813 240 384 218.507813 384 192 C 384 220.066406 408.085938 242.507813 436.714844 239.773438 C 461.675781 237.394531 480 215.003906 480 189.9375 L 480 144 L 0 144 Z "/>
<path style=" stroke:none;fill-rule:nonzero;fill:#DFF0FE;fill-opacity:1;" d="M 480 144 L 0 144 L 24 96 L 456 96 Z "/>
<path style=" stroke:none;fill-rule:nonzero;fill:#4788C7;fill-opacity:1;" d="M 456 96 L 442.585938 96 L 468 146.832031 L 468 189.9375 C 468 209.449219 453.757813 226.09375 435.574219 227.832031 C 434.375 227.941406 433.175781 228 432 228 C 412.152344 228 396 211.847656 396 192 C 396 185.375 390.625 180 384 180 C 377.375 180 372 185.375 372 192 C 372 211.847656 355.847656 228 336 228 C 316.152344 228 300 211.847656 300 192 C 300 185.375 294.625 180 288 180 C 281.375 180 276 185.375 276 192 C 276 211.847656 259.847656 228 240 228 C 220.152344 228 204 211.847656 204 192 C 204 185.375 198.625 180 192 180 C 185.375 180 180 185.375 180 192 C 180 211.847656 163.847656 228 144 228 C 124.152344 228 108 211.847656 108 192 C 108 185.375 102.625 180 96 180 C 89.375 180 84 185.375 84 192 C 84 211.847656 67.847656 228 48 228 C 46.824219 228 45.625 227.941406 44.425781 227.832031 C 26.242188 226.09375 12 209.449219 12 189.9375 L 12 146.832031 L 37.414063 96 L 24 96 L 0 144 L 0 189.9375 C 0 215.003906 18.324219 237.394531 43.285156 239.773438 C 44.867188 239.929688 46.453125 240 48 240 C 74.507813 240 96 218.507813 96 192 C 96 218.507813 117.492188 240 144 240 C 170.507813 240 192 218.507813 192 192 C 192 218.507813 213.492188 240 240 240 C 266.507813 240 288 218.507813 288 192 C 288 218.507813 309.492188 240 336 240 C 362.507813 240 384 218.507813 384 192 C 384 218.507813 405.492188 240 432 240 C 433.558594 240 435.132813 239.929688 436.714844 239.773438 C 461.675781 237.394531 480 215.003906 480 189.9375 L 480 144 Z "/>
<path style=" stroke:none;fill-rule:nonzero;fill:#FFFFFF;fill-opacity:1;" d="M 84 54 C 84 63.941406 75.941406 72 66 72 C 56.058594 72 48 63.941406 48 54 C 48 44.058594 56.058594 36 66 36 C 75.941406 36 84 44.058594 84 54 Z "/>
<path style=" stroke:none;fill-rule:nonzero;fill:#FFFFFF;fill-opacity:1;" d="M 132 54 C 132 63.941406 123.941406 72 114 72 C 104.058594 72 96 63.941406 96 54 C 96 44.058594 104.058594 36 114 36 C 123.941406 36 132 44.058594 132 54 Z "/>
<path style="fill:none;stroke-width:1;stroke-linecap:butt;stroke-linejoin:miter;stroke:#4788C7;stroke-opacity:1;stroke-miterlimit:4;" d="M 0.5 12.5 L 39.5 12.5 " transform="matrix(12,0,0,12,0,0)"/>
<path style=" stroke:none;fill-rule:nonzero;fill:#FFFFFF;fill-opacity:1;" d="M 156 36 L 432 36 L 432 72 L 156 72 Z "/>
</g>
</svg>
